<?xml version="1.0" encoding="UTF-8" standalone="no"?>
<svg id="svg4414" xmlns:rdf="http://www.w3.org/1999/02/22-rdf-syntax-ns#" xmlns="http://www.w3.org/2000/svg" height="1e3" width="1e3" version="1.1" xmlns:cc="http://creativecommons.org/ns#" xmlns:dc="http://purl.org/dc/elements/1.1/" viewBox="0 0 999.99999 999.99999">
 <g id="layer1" transform="translate(0 -52.362)">
  <g id="g4323" fill-rule="evenodd" transform="matrix(2.2155 .49615 -.49615 2.2155 -680.63 -1442.7)">
   <path id="path4296" d="m678.45 787.61c-0.84568 0.38641-7.144-11.026-16.942-31.356-5.2545-10.893-14.725-31.732-24.525-47.473-8.3318-13.348-19.586-28.02-34.614-38.498l-0.00001-0.00001c-12.356-8.592-28.112-14.953-44.186-13.979-7.5632 0.42395-15.211 2.3846-21.954 6.1088-5.7445 3.1698-10.919 7.6263-14.726 13.05-0.52408 0.74673-1.0206 1.5095-1.4878 2.2872-3.702 6.0799-5.6726 13.196-6.1363 20.275-0.47822 7.3053 0.70926 14.687 2.9519 21.583 4.68 14.572 14.54 27.186 24.64 37.671 25.16 25.88 53.184 39.507 76.204 45.876 30.478 8.4512 49.352 4.8546 49.531 6.9441 0.009 0.10678-18.765 6.1187-51.008-0.99321-24.26-5.3652-54.294-18.657-81.219-45.403-10.935-10.768-21.729-24.383-27.427-41.009-2.676-7.8902-4.0888-16.494-3.5937-25.27 0.48127-8.5317 2.8929-17.173 7.4977-24.845 0.59189-0.97565 1.2168-1.9303 1.8732-2.8628 4.7684-6.7744 11.082-12.221 18.122-16.042 8.2418-4.4698 17.322-6.7663 26.242-7.1662 18.973-0.7779 36.575 6.473 49.998 16.34l0.00001 0.00001c16.269 11.932 27.807 27.718 35.962 41.943 9.9159 17.252 17.945 37.653 22.635 49.353 8.388 20.901 13.057 33.056 12.161 33.465z" fill="#80a"/>
   <path id="path4302" d="m706.13 766.44c-0.86536-1.0207 7.5687-8.1534 18.782-23.032 9.9309-13.26 25.47-37.801 24.545-65.356-0.33503-10.223-2.8404-21.295-9.2103-29.888-2.9812-4.0731-6.7711-7.6722-11.183-10.188-4.2719-2.4381-9.1821-3.9577-14.101-4.0481-0.0694-0.002-0.13892-0.003-0.20844-0.005-4.6204-0.0848-9.2925 1.0859-13.492 3.081-4.3916 2.0861-8.3182 5.1753-11.623 8.7449-6.9987 7.4777-11.097 17.489-13.641 27.118-6.4567 24.716-2.5532 49.647 1.518 66.341 5.6588 23.042 12.554 35.696 11.141 36.432-0.65588 0.34171-9.6148-11.31-17.173-34.716-5.5149-16.991-10.77-42.876-4.4724-70.258 2.429-10.683 7.0127-22.133 15.363-31.527 3.9889-4.4476 8.8847-8.3292 14.559-11.102 5.4484-2.6621 11.609-4.1865 17.965-4.1118 0.0956 0.001 0.19121 0.003 0.28683 0.004 6.7787 0.1713 13.272 2.1659 18.861 5.4346 5.7453 3.3628 10.514 7.936 14.156 13.083 7.663 10.945 10.456 23.853 10.414 35.48-0.13796 31.349-17.793 56.195-29.374 69.046-12.887 14.38-22.652 20.008-23.113 19.464z" fill="#80a"/>
   <path id="path4309" d="m654.83 833.86c-0.6621-0.0516 4.8823 20.553-14.361 49.084 0-0.00001-0.00001 0-0.00001 0-11.653 17.28-33.966 36.097-64.63 39.573-11.539 1.345-24.451 0.21826-36.172-5.5824-5.5868-2.7968-10.785-6.724-15.005-11.739-2.123-2.524-3.9646-5.3237-5.4457-8.3379-1.4122-2.8741-2.4802-5.9103-3.1587-9.0465-2.4603-12.129 0.97876-24.264 7.2799-33.527 6.6578-9.8082 15.915-16.842 25.112-21.794 20.619-11.139 43.214-14.367 59.953-15.498h0.00001c33.935-2.3635 54.317 2.5809 54.238 3.4295-0.17311 1.8482-20.715-0.49874-53.56 3.5865h-0.00001c-16.158 2.0448-37.754 5.9196-56.125 16.551-8.1835 4.7541-16.234 10.975-21.473 19.121-4.8595 7.5809-7.6821 17.255-5.6573 26.035 0.48691 2.2965 1.2898 4.5561 2.361 6.7208 1.1234 2.27 2.5287 4.4088 4.1403 6.3533 3.2124 3.8783 7.3447 7.0056 11.82 9.3127 9.3451 4.8847 20.476 5.8929 30.728 5.0034 27.247-2.4622 48.366-18.873 60.009-34.158v-0.00001c19.227-25.252 16.976-45.319 19.947-45.088z" fill="#80a"/>
   <path id="path4324" d="m654.38 797.13c-15.691-3.1471-30.922-8.5761-45.066-16.063-10.099-5.346-19.89-11.975-26.326-21.418-3.0539-4.481-5.3062-9.6037-5.8529-14.999-0.54669-5.3951 0.72408-11.074 4.0681-15.343 2.0908-2.6691 4.9289-4.721 8.0616-6.018s6.5523-1.8509 9.9419-1.7701c6.7792 0.1617 13.302 2.8223 19.031 6.4494 13.575 8.5936 23.148 22.52 29.003 37.481 3.9602 10.119 6.3764 20.841 7.1392 31.68z" stroke="#000" stroke-width=".24045px" fill="#ff2a7f"/>
   <path id="path4329" d="m648.36 829.59c-4.1037 10.687-9.7613 20.776-16.74 29.851-4.9828 6.4799-10.833 12.588-18.265 15.992-3.5267 1.6154-7.4096 2.5885-11.28 2.3261-3.8702-0.26239-7.7223-1.8405-10.331-4.7113-1.6311-1.795-2.7373-4.0427-3.2756-6.4076-0.53838-2.3649-0.51837-4.8429-0.0543-7.2234 0.92815-4.7611 3.5877-9.0413 6.8335-12.646 7.6902-8.5405 18.66-13.619 29.914-15.951 7.6114-1.5775 15.462-1.9937 23.198-1.2299z" stroke="#000" stroke-width="0.172px" fill="#ff2a7f"/>
   <path id="path4333" d="m693.71 763.41c-4.432-9.3197-7.508-19.283-9.1011-29.479-1.1375-7.2804-1.4934-14.897 0.89945-21.866 1.1356-3.3073 2.912-6.4483 5.4877-8.8135 2.5756-2.3652 5.9995-3.9012 9.4955-3.822 2.1858 0.0495 4.3413 0.72331 6.2206 1.8407s3.4856 2.6699 4.7524 4.4519c2.5336 3.564 3.6774 7.9602 4.0158 12.32 0.80176 10.329-2.6956 20.65-8.1629 29.451-3.6978 5.9521-8.3031 11.339-13.607 15.918z" stroke="#000" stroke-width=".15505px" fill="#ff2a7f"/>
   <g id="g4315" fill="#892ca0" transform="matrix(.82625 .043499 -.052579 .99872 165.68 -29.868)">
    <path id="path4337" d="m680.28 821.38c2.8437 6.6154 4.2191 13.857 3.999 21.054-0.1552 5.0746-1.0907 10.097-2.3147 15.025-0.86041 3.4637-1.9086 6.9815-4.0777 9.8156-1.0845 1.4171-2.4456 2.6406-4.0386 3.445-1.5929 0.80433-3.4241 1.1747-5.1897 0.91549-2.0313-0.29823-3.8981-1.4231-5.2536-2.965s-2.2184-3.4797-2.6441-5.4881c-0.8514-4.0168-0.003-8.183 0.97693-12.171 1.6979-6.9116 3.8552-13.852 7.9161-19.697 2.7874-4.0121 6.4358-7.4228 10.626-9.9341z"/>
    <path id="path4342" d="m686.51 819.19c-1.0771-0.49816-2.0163-1.2803-2.7316-2.2272-0.71529-0.94687-1.2084-2.0555-1.4699-3.2131-0.52282-2.3151-0.10986-4.7816 0.8803-6.9385 0.68297-1.4878 1.6433-2.8592 2.8786-3.9335s2.7515-1.8432 4.3675-2.1049c1.5113-0.24475 3.0949-0.0379 4.4869 0.59944 1.392 0.63737 2.5859 1.7045 3.363 3.0236 0.7967 1.3524 1.1477 2.9448 1.1087 4.514-0.039 1.5691-0.45712 3.1157-1.1087 4.5437-1.0081 2.2093-2.6251 4.19-4.7604 5.3465-1.0677 0.57827-2.2547 0.94407-3.4662 1.0254-1.2115 0.0813-2.4463-0.12566-3.5483-0.63538z"/>
    <path id="path4346" d="m700.71 800.65c-1.0056-0.46511-1.8825-1.1953-2.5503-2.0794-0.66784-0.88405-1.1283-1.9192-1.3724-2.9999-0.48814-2.1615-0.10257-4.4643 0.82189-6.4782 0.63766-1.3891 1.5343-2.6695 2.6876-3.6725s2.5689-1.721 4.0777-1.9653c1.4111-0.22851 2.8895-0.0354 4.1892 0.55967 1.2997 0.59508 2.4144 1.5914 3.1399 2.823 0.74383 1.2627 1.0716 2.7494 1.0352 4.2145-0.0364 1.465-0.4268 2.9089-1.0352 4.2422-0.9412 2.0627-2.4509 3.912-4.4445 4.9918-0.99682 0.5399-2.1051 0.88142-3.2362 0.95731-1.1311 0.0759-2.284-0.11731-3.3129-0.59321z"/>
    <path id="path4350" d="m749.13 751.52c-5.9043 5.0981-10.607 11.579-13.623 18.773-1.6893 4.0291-2.9372 8.4089-5.9185 11.603-2.2992 2.463-5.6102 4.0316-8.9788 3.9574-1.6843-0.0371-3.3629-0.47831-4.8289-1.3084-1.466-0.83013-2.7141-2.0511-3.5426-3.518-0.7429-1.3153-1.1436-2.8139-1.2181-4.3227-0.0744-1.5088 0.173-3.0267 0.66415-4.4552 0.98231-2.857 2.9128-5.3128 5.1603-7.3318 4.2775-3.8427 9.6663-6.2009 15.062-8.1874 5.632-2.0734 11.387-3.8137 17.224-5.2088z"/>
    <path id="path4354" d="m743.09 760.86c-1.4103-0.65228-2.6401-1.6764-3.5767-2.9162s-1.5823-2.6915-1.9246-4.2071c-0.68458-3.0313-0.14385-6.2609 1.1526-9.0852 0.89427-1.9481 2.1517-3.7438 3.7692-5.1504 1.6174-1.4066 3.6027-2.4135 5.7187-2.7562 1.9789-0.32046 4.0523-0.0497 5.8751 0.7849 1.8227 0.83456 3.386 2.2318 4.4035 3.959 1.0432 1.7708 1.5028 3.8559 1.4517 5.9105s-0.59854 4.0796-1.4517 5.9494c-1.32 2.8928-3.4372 5.4863-6.2332 7.0006-1.398 0.75717-2.9523 1.2361-4.5386 1.3426-1.5863 0.10643-3.2031-0.16454-4.6461-0.83195z"/>
   </g>
   <path id="path4374" d="m3453.6 436.44c-7.0779 0.0152-4.2808-0.30271-18.721 0.83423s-27.008 1.5201-38.236 7.4978c-11.765 6.2632-21.269 16.995-25.193 29.732-3.0375 9.8597-2.661 20.789 1.3399 30.299 4.0009 9.5096 8.3741 13.552 17.837 17.663 8.9194 3.8747 24.403 5.5743 33.842 3.238 9.4398-2.3364 16.142-4.6622 23.579-10.928 9.9035-8.3448 17.92-19.47 20.428-32.176 1.2538-6.3527 1.0947-13.016-0.7578-19.221-1.6421-5.4997-4.644-10.616-8.7597-14.605 22.041 2.531 47.596 12.618 66.998 33.662 18.205 19.566 30.012 48.44 30.227 80.219 0.2044 27.973-8.7951 57.251-25.469 83.689-13.282 21.265-31.058 39.718-52.346 55.938-28.112 21.419-60.721 37.681-91.697 50.502-89.402 36.51-171.79 47.881-231.89 51.027-59.721 3.1266-95.436-1.4319-95.799 1.5762-0.1894 1.5717 35.094 10.496 96.094 10.736 61.221 0.24119 146.31-8.9032 238.78-45.469 32.308-12.606 66.472-29.483 96.553-52.672 22.736-17.527 42.036-37.808 56.832-61.266 18.41-29.444 27.857-62.446 27.184-94.328-0.7846-36.391-15.394-68.827-37.066-90.875-25.348-25.587-57.761-35.098-83.752-35.074z" transform="matrix(.25204 0 0 .25204 -4.1615 534.74)" fill="#892ca0"/>
   <path id="path4380" d="m3206.8 282.17c-18.946 0.14159-36.66 4.7975-50.84 11.912-10.444 5.2748-13.743 4.8532-23.053 11.579-5.6943 4.1134-4.4875 3.317-10.383 8.4425-5.8954 5.1256-13.469 11.873-17.83 18.871-8.0553 12.928-10.15 28.978-7.5566 44.029-0.065 3.0394 0.2946 4.6908 0.5761 4.7344 0.1239 0.0192 0.2467-0.0337 0.3692-0.12305 1.273 5.3264 3.1283 10.536 5.8769 15.27 2.9032 4.9995 6.8243 9.4632 11.676 12.607 8.4138 5.453 19.234 6.5594 28.943 4.0566 9.7089-2.5028 18.337-8.3699 25.197-15.682 8.3695-8.9199 14.35-20.207 16.27-32.287 1.9192-12.08-0.3673-24.914-6.9903-35.197-6.2638-9.7257-16.496-16.91-27.783-19.225 3.2389-1.8887 6.6637-3.6465 10.287-5.2285 25.436-11.197 63.03-13.29 94.732 6.1875 15.475 9.4138 29.042 23.645 38.902 41.104 9.1366 16.176 14.851 34.981 17.047 54.955 3.0803 27.217-0.8528 55.516-9.418 84.293-3.1865 10.706-6.9373 21.222-11.01 31.424-26.317 65.269-67.09 117.45-108.39 155.75-42.56 39.435-84.681 63.484-115.12 78.219-30.48 14.755-49.132 20.453-48.541 22.518 0.367 1.2811 19.99-1.2095 52.373-13.666 32.242-12.402 77.075-35.05 122.45-74.652 44.098-38.466 87.597-92.25 115.55-160.73 4.3946-10.664 8.406-21.761 11.791-33.186 9.0954-30.696 13.059-61.724 9.5859-92.158-2.6165-22.364-9.4676-43.552-20.244-62.008-11.659-19.966-27.815-36.001-46.238-46.637-19.109-10.939-39.287-15.312-58.232-15.17z" transform="matrix(.25204 0 0 .25204 -4.1615 534.74)" fill="#892ca0"/>
  </g>
 </g>
</svg>
